<svg width="128" height="128" viewBox="0 0 128 128" fill="none" xmlns="http://www.w3.org/2000/svg">
<g clip-path="url(#clip0_17_50)">
<path d="M63.813 9C37.842 9 37.563 19.081 37.563 21.156C37.563 24.304 37.563 33.75 37.563 33.75H64.313V37.531C64.313 37.531 36.461 37.531 26.938 37.531C18.989 37.531 9 42.364 9 63.781C9 83.454 16.792 91.062 24.656 91.062C26.991 91.062 34 91.062 34 91.062C34 91.062 34 81.297 34 77.937C34 72.446 36.721 62.281 49.406 62.281C65.316 62.281 69.377 62.281 75.937 62.281C79.839 62.281 90.843 60.585 90.843 47.875C90.843 34.423 90.843 29.985 90.843 23.656C90.844 20.503 90.305 9 63.813 9ZM49.063 17.469C51.725 17.469 53.876 19.619 53.876 22.282C53.876 24.943 51.725 27.095 49.063 27.095C46.401 27.095 44.25 24.944 44.25 22.282C44.25 19.619 46.401 17.469 49.063 17.469Z" fill="url(#paint0_linear_17_50)"/>
<path d="M64.187 119C90.146 119 90.469 108.729 90.469 106.844C90.469 103.696 90.469 94.25 90.469 94.25H63.687V90.469C63.687 90.469 91.719 90.469 101.062 90.469C109.071 90.469 119 85.515 119 64.219C119 40.897 108.462 36.938 103.344 36.938C101.008 36.938 94 36.938 94 36.938C94 36.938 94 47.154 94 50.063C94 55.554 91.369 65.719 78.594 65.719C62.684 65.719 59.118 65.719 52.062 65.719C48.17 65.719 37.156 67.615 37.156 80.125C37.156 94.6 37.156 98.39 37.156 104.344C37.156 109.574 40.352 119 64.187 119ZM78.938 110.531C76.276 110.531 74.125 108.38 74.125 105.718C74.125 103.056 76.275 100.905 78.938 100.905C81.599 100.905 83.751 103.056 83.751 105.718C83.751 108.38 81.599 110.531 78.938 110.531Z" fill="url(#paint1_linear_17_50)"/>
<path d="M15.0625 51.375V79.625H26.5603V75.278H19.6531V55.722H26.5603V51.375H15.0625Z" fill="black"/>
<path d="M102.44 51.375V55.722H109.347V75.278H102.44V79.625H113.937V51.375H102.44Z" fill="black"/>
<path d="M70.2488 65.5L88.6466 55.722V75.278L70.2488 65.5Z" fill="#30D475"/>
<path d="M50.7035 75.278C56.4177 75.278 61.0501 70.9003 61.0501 65.5C61.0501 60.0998 56.4177 55.722 50.7035 55.722C44.9892 55.722 40.3569 60.0998 40.3569 65.5C40.3569 70.9003 44.9892 75.278 50.7035 75.278Z" fill="#30D475"/>
</g>
<defs>
<linearGradient id="paint0_linear_17_50" x1="19.3085" y1="18.8262" x2="73.986" y2="73.6866" gradientUnits="userSpaceOnUse">
<stop stop-color="#387EB8"/>
<stop offset="1" stop-color="#366994"/>
</linearGradient>
<linearGradient id="paint1_linear_17_50" x1="52.537" y1="53.877" x2="111.159" y2="110.04" gradientUnits="userSpaceOnUse">
<stop stop-color="#FFE052"/>
<stop offset="1" stop-color="#FFC331"/>
</linearGradient>
<clipPath id="clip0_17_50">
<rect width="110" height="110" fill="white" transform="translate(9 9)"/>
</clipPath>
</defs>
</svg>
